# xmcd
#
# Track frame offsets:
#	150
#	14026
#	24450
#	37658
#	50263
#	63250
#	76015
#	89613
#	98852
#	112759
#	123906
#	135327
#	150433
#
# Disc length: 2190 seconds
# Revision: 0
# Processed by: cddbd v1.5.2PL0 Copyright (c) Steve Scherf et al.
# Submitted via: dBpowerAMP V12.0
#
DISCID=8c088c0d
DTITLE=Tony Holt and The Wildwood Valley Boys - Hymns from Wildwood Valley
DYEAR=2015
DGENRE=Country
TTITLE0=I Will Not Fear
TTITLE1=Way Up On the Mountain
TTITLE2=Old Time Religion Working in My Heart
TTITLE3=Stairway of Gold
TTITLE4=Jonah
TTITLE5=Grandpa Was a Farmer
TTITLE6=Church in the Pines
TTITLE7=I'm Making My Way
TTITLE8=Summer's Gone
TTITLE9=Lead Me Down the Pathway
TTITLE10=The Kingdom of Heaven
TTITLE11=Battle Scarred Soldier
TTITLE12=Lost Soul
EXTD=
EXTT0=
EXTT1=
EXTT2=
EXTT3=
EXTT4=
EXTT5=
EXTT6=
EXTT7=
EXTT8=
EXTT9=
EXTT10=
EXTT11=
EXTT12=
PLAYORDER=
